#N canvas 322 179 688 499 12;
#N canvas 246 168 983 517 knobs 0;
#X obj 59 23 r knob1;
#X obj 140 151 s screenLine1;
#X obj 466 24 r knob2;
#X obj 584 114 s screenLine2;
#X obj 466 45 * 100;
#X obj 466 66 expr round($f1);
#X obj 451 94 * 0.01;
#X text 576 67 limits float to 2 decimals;
#X obj 59 64 int;
#X obj 59 106 max 1;
#X text 130 84 min 1 second \, max 30 second loop length;
#X obj 59 43 * 30;
#X obj 59 85 change -1;
#X msg 140 130 Loop Length: \$1 sec;
#X msg 584 93 Feedback: \$1 %;
#X obj 49 232 * 100;
#X obj 34 281 * 0.01;
#X obj 49 208 r knob3;
#X obj 49 253 expr round($f1);
#X obj 35 150 s loop-length;
#X obj 451 114 s feedback-amount;
#X obj 34 301 s input-vol;
#X msg 165 281 Input Vol: \$1 %;
#X obj 165 302 s screenLine3;
#X obj 470 234 * 100;
#X obj 455 283 * 0.01;
#X obj 470 255 expr round($f1);
#X obj 470 210 r knob4;
#X obj 455 303 s output-vol;
#X obj 586 304 s screenLine4;
#X msg 586 283 Output Vol: \$1 %;
#X connect 0 0 11 0;
#X connect 2 0 4 0;
#X connect 4 0 5 0;
#X connect 5 0 6 0;
#X connect 5 0 14 0;
#X connect 6 0 20 0;
#X connect 8 0 12 0;
#X connect 9 0 13 0;
#X connect 9 0 19 0;
#X connect 11 0 8 0;
#X connect 12 0 9 0;
#X connect 13 0 1 0;
#X connect 14 0 3 0;
#X connect 15 0 18 0;
#X connect 16 0 21 0;
#X connect 17 0 15 0;
#X connect 18 0 22 0;
#X connect 18 0 16 0;
#X connect 22 0 23 0;
#X connect 24 0 26 0;
#X connect 25 0 28 0;
#X connect 26 0 30 0;
#X connect 26 0 25 0;
#X connect 27 0 24 0;
#X connect 30 0 29 0;
#X restore 31 284 pd knobs;
#N canvas 73 94 1141 603 state 0;
#X obj 15 23 r aux;
#X obj 60 89 + 1;
#X obj 15 44 sel 1;
#X text 40 66 on first press trigger recording state;
#X obj 331 21 r notes;
#X obj 331 42 unpack;
#X text 383 21 if note is C (60) \, and aux is active \, clear buffer
;
#X obj 15 108 mod 2;
#X floatatom 54 44 5 0 0 0 - - -;
#X obj 331 63 sel 60;
#X obj 331 84 bng 15 250 50 0 empty empty empty 17 7 0 10 -262144 -1
-1;
#X obj 170 212 sel 0 1 2, f 65;
#X msg 331 103 2;
#X msg 351 123 -1;
#X obj 15 87 i 0;
#X text 383 123 reset aux state so next time itis hit it starts recording
since there is nothing to play back after clearing loop;
#X text 364 102 send clear loop state;
#X obj 15 65 tgl 15 0 empty empty empty 17 7 0 10 -262144 -1 -1 0 1
;
#X obj 77 267 bng 15 250 50 0 empty empty empty 17 7 0 10 -262144 -1
-1;
#X obj 267 267 bng 15 250 50 0 empty empty empty 17 7 0 10 -262144
-1 -1;
#X obj 471 264 bng 15 250 50 0 empty empty empty 17 7 0 10 -262144
-1 -1;
#X text 56 110 count button presses \, output 0 or 1;
#X msg 77 286 \; state record \; led 1 \; screenLine5 Recording \;
;
#X msg 267 286 \; state play \; led 3 \; screenLine5 Playing \;;
#X obj 856 44 r notes;
#X obj 856 65 unpack;
#X obj 856 107 bng 15 250 50 0 empty empty empty 17 7 0 10 -262144
-1 -1;
#X obj 856 86 sel 83;
#X obj 856 325 sel 0 1;
#X obj 896 126 + 1;
#X text 856 15 turn tape noise on/off w/ B(4);
#X obj 856 254 hradio 15 1 0 2 empty empty empty 0 -8 0 10 -262144
-1 -1 0;
#X obj 856 274 t f f b;
#X obj 856 305 f -1;
#X obj 856 349 tgl 15 0 empty empty empty 17 7 0 10 -262144 -1 -1 1
1;
#X obj 875 349 tgl 15 0 empty empty empty 17 7 0 10 -262144 -1 -1 0
1;
#X floatatom 821 86 5 0 0 0 - - -;
#X obj 856 148 mod 2;
#X floatatom 821 127 5 0 0 0 - - -;
#X msg 856 371 \; screenLine3 Tape Noise: Off \;;
#X msg 875 404 \; screenLine3 Tape Noise: On \;;
#X floatatom 821 148 5 0 0 0 - - -;
#X obj 856 169 sel 0;
#X obj 856 190 bng 15 250 50 0 empty empty empty 17 7 0 10 -262144
-1 -1;
#X obj 886 211 + 1;
#X obj 856 232 mod 2;
#X floatatom 903 235 5 0 0 0 - - -;
#X obj 856 127 i;
#X text 886 107 fires 2x - on note on & off;
#X text 901 142 so this will always end on 1 because of double incriment
upstream;
#X text 902 171 isolate note off from double incriment;
#X text 914 210 now can do a proper mod to get 0 & 1 values from keypress
;
#X obj 856 211 i;
#X obj 907 87 loadbang;
#X text 906 72 start patch with tape noise off;
#X obj 903 253 s tapenoise-onoff;
#X msg 474 286 \; state clear \; screenLine5 Clearing... \;;
#X obj 479 350 delay 5000;
#X msg 479 384 stop;
#X obj 471 439 tgl 15 0 empty empty empty 17 7 0 10 -262144 -1 -1 0
1;
#X obj 471 459 sel 1;
#X msg 503 484 0;
#X obj 471 512 s led;
#X obj 471 415 metro 150;
#X msg 471 483 7;
#X msg 599 387 \; led 6 \; screenLine5 Loop Cleared;
#X obj 599 441 delay 500;
#X connect 0 0 2 0;
#X connect 0 0 8 0;
#X connect 1 0 14 1;
#X connect 2 0 17 0;
#X connect 4 0 5 0;
#X connect 5 0 9 0;
#X connect 7 0 11 0;
#X connect 9 0 10 0;
#X connect 10 0 12 0;
#X connect 10 0 13 0;
#X connect 11 0 18 0;
#X connect 11 1 19 0;
#X connect 11 2 20 0;
#X connect 12 0 11 0;
#X connect 13 0 1 0;
#X connect 14 0 1 0;
#X connect 14 0 7 0;
#X connect 17 0 14 0;
#X connect 18 0 22 0;
#X connect 19 0 23 0;
#X connect 20 0 56 0;
#X connect 20 0 57 0;
#X connect 20 0 63 0;
#X connect 24 0 25 0;
#X connect 25 0 36 0;
#X connect 25 0 27 0;
#X connect 26 0 47 0;
#X connect 27 0 26 0;
#X connect 28 0 34 0;
#X connect 28 1 35 0;
#X connect 29 0 47 1;
#X connect 31 0 32 0;
#X connect 32 0 33 1;
#X connect 32 1 33 0;
#X connect 32 2 33 0;
#X connect 33 0 28 0;
#X connect 34 0 39 0;
#X connect 35 0 40 0;
#X connect 37 0 41 0;
#X connect 37 0 42 0;
#X connect 42 0 43 0;
#X connect 43 0 52 0;
#X connect 44 0 52 1;
#X connect 45 0 46 0;
#X connect 45 0 31 0;
#X connect 45 0 55 0;
#X connect 47 0 37 0;
#X connect 47 0 38 0;
#X connect 47 0 29 0;
#X connect 52 0 44 0;
#X connect 52 0 45 0;
#X connect 53 0 26 0;
#X connect 57 0 58 0;
#X connect 57 0 65 0;
#X connect 57 0 66 0;
#X connect 58 0 63 0;
#X connect 59 0 60 0;
#X connect 60 0 64 0;
#X connect 60 1 61 0;
#X connect 61 0 62 0;
#X connect 63 0 59 0;
#X connect 64 0 62 0;
#X connect 66 0 61 0;
#X restore 116 283 pd state;
#N canvas 715 124 419 305 recorder 0;
#X obj 51 222 catch~ feedback-signal;
#X obj 25 66 r record-ctrl;
#X obj 6 252 delwrite~ loop-buffer 30000;
#X obj 7 114 *~;
#X obj 25 91 tgl 15 0 empty empty empty 17 7 0 10 -262144 -1 -1 0 1
;
#X obj 8 9 r~ inL;
#X obj 16 33 r~ inR;
#X obj 36 122 r input-vol;
#X obj 7 148 *~ 1;
#X obj 51 166 r clear-ctrl;
#X msg 51 190 clear;
#X connect 0 0 2 0;
#X connect 1 0 4 0;
#X connect 3 0 8 0;
#X connect 4 0 3 1;
#X connect 5 0 3 0;
#X connect 6 0 3 0;
#X connect 7 0 8 1;
#X connect 8 0 2 0;
#X connect 9 0 10 0;
#X connect 10 0 2 0;
#X restore 343 282 pd recorder;
#N canvas 158 234 582 339 player 0;
#X obj 28 83 r playback-ctrl;
#X obj 28 156 throw~ playback-signal-feedbackloop;
#X obj 10 124 *~;
#X obj 28 106 tgl 15 0 empty empty empty 17 7 0 10 -262144 -1 -1 0
1;
#X obj 10 54 delread~ loop-buffer;
#X obj 10 6 r loop-length;
#X obj 10 293 throw~ outL;
#X obj 96 293 throw~ outR;
#X obj 10 30 * 1000;
#X obj 118 229 r~ inL;
#X obj 118 255 *~ 1;
#X obj 170 229 r input-vol;
#X obj 10 216 *~;
#X obj 28 191 r output-vol;
#X text 283 156 to feedback loop and delayline write;
#X text 118 7 convert to ms;
#X text 257 229 passthru audio in volume control;
#X text 120 191 recording playback from delay line output volume;
#X connect 0 0 3 0;
#X connect 2 0 1 0;
#X connect 2 0 12 0;
#X connect 3 0 2 1;
#X connect 4 0 2 0;
#X connect 5 0 8 0;
#X connect 8 0 4 0;
#X connect 9 0 10 0;
#X connect 10 0 7 0;
#X connect 10 0 6 0;
#X connect 11 0 10 1;
#X connect 12 0 7 0;
#X connect 12 0 6 0;
#X connect 13 0 12 1;
#X restore 344 344 pd player;
#N canvas 542 215 383 158 feedback 0;
#X obj 12 94 *~;
#X obj 25 38 r feedback-amount;
#X obj 25 62 t b f;
#X obj 12 118 throw~ feedback-signal;
#X obj 12 13 catch~ playback-signal-feedbackloop;
#X text 156 37 set to 100% to lock playback;
#X text 179 117 to delay line write;
#X connect 0 0 3 0;
#X connect 1 0 2 0;
#X connect 2 0 0 0;
#X connect 2 1 0 1;
#X connect 4 0 0 0;
#X restore 343 313 pd feedback;
#N canvas 682 214 502 367 state-handler 0;
#X obj 16 133 bng 15 250 50 0 empty empty empty 17 7 0 10 -262144 -1
-1;
#X obj 111 133 bng 15 250 50 0 empty empty empty 17 7 0 10 -262144
-1 -1;
#X obj 208 133 bng 15 250 50 0 empty empty empty 17 7 0 10 -262144
-1 -1;
#X obj 16 109 route record play clear, f 42;
#X obj 16 75 r state;
#X obj 16 219 s record-ctrl;
#X obj 131 219 s playback-ctrl;
#X obj 260 219 s clear-ctrl;
#X text 15 9 state: record - start recording and playback;
#X text 15 26 state: play - stop recording \, continue playing;
#X text 15 44 state: clear - stop recording \, stop playing \, reset
array;
#X msg 16 171 1;
#X msg 111 171 0;
#X msg 208 169 0;
#X connect 0 0 11 0;
#X connect 1 0 12 0;
#X connect 2 0 13 0;
#X connect 2 0 12 0;
#X connect 2 0 7 0;
#X connect 3 0 0 0;
#X connect 3 1 1 0;
#X connect 3 2 2 0;
#X connect 4 0 3 0;
#X connect 11 0 5 0;
#X connect 11 0 6 0;
#X connect 12 0 5 0;
#X connect 13 0 6 0;
#X restore 42 318 pd state-handler;
#N canvas 4 50 567 599 tapenoise 0;
#X obj 9 86 noise~;
#X obj 9 107 bp~ 4881.89 8.714;
#X obj 10 262 +~;
#X obj 88 219 phasor~ 100.1;
#X obj 188 219 phasor~ 100.2;
#X obj 126 262 *~;
#X obj 126 283 *~ 0.35;
#X obj 9 374 lop~ 866.142;
#X obj 139 86 noise~;
#X obj 139 107 bp~ 8425.2 7.061;
#X obj 139 128 lop~ 1417.32;
#X obj 8 451 *~;
#X obj 23 430 tgl 15 0 empty empty empty 17 7 0 10 -262144 -1 -1 0
1;
#X obj 7 499 *~;
#X obj 296 84 noise~;
#X obj 296 105 bp~ 708.661 10;
#X obj 296 126 lop~ 708.661;
#X obj 297 260 *~;
#X obj 406 84 loadbang;
#X obj 406 105 metro 12000;
#X msg 406 127 1 50;
#X obj 406 148 bng 15 250 50 0 empty empty empty 17 7 0 10 -262144
-1 -1;
#X obj 406 169 delay 75;
#X obj 406 190 bng 15 250 50 0 empty empty empty 17 7 0 10 -262144
-1 -1;
#X msg 406 211 0 100;
#X obj 380 235 line~;
#X text 10 56 main tape hiss sources;
#X text 317 53 tape pop/head noise;
#X text 104 195 electronic hum/feedback;
#X text 8 7 Simulates hiss/noise from analog tape recorder/player;
#X obj 22 477 r tapeNoiseAmount;
#X text 146 477 (volume);
#X obj 297 281 *~ 2;
#X obj 23 408 r tapenoise-onoff;
#X obj 7 552 throw~ tape-noise;
#X obj 7 523 *~ 0.2;
#X connect 0 0 1 0;
#X connect 1 0 2 0;
#X connect 2 0 7 0;
#X connect 3 0 5 0;
#X connect 4 0 5 1;
#X connect 5 0 6 0;
#X connect 6 0 7 0;
#X connect 7 0 11 0;
#X connect 8 0 9 0;
#X connect 9 0 10 0;
#X connect 10 0 2 1;
#X connect 11 0 13 0;
#X connect 12 0 11 1;
#X connect 13 0 35 0;
#X connect 14 0 15 0;
#X connect 15 0 16 0;
#X connect 16 0 17 0;
#X connect 17 0 32 0;
#X connect 18 0 19 0;
#X connect 19 0 20 0;
#X connect 20 0 21 0;
#X connect 20 0 25 0;
#X connect 21 0 22 0;
#X connect 22 0 23 0;
#X connect 23 0 24 0;
#X connect 24 0 25 0;
#X connect 25 0 17 1;
#X connect 30 0 13 1;
#X connect 32 0 7 0;
#X connect 33 0 12 0;
#X connect 35 0 34 0;
#X restore 453 282 pd tapenoise;
#X text 11 137 knob 1 - sets loop length in seconds (max 30);
#X text 11 154 knob 2 - sets feedback amount (0 - 100%);
#X text 374 133 aux - toggle recording and playback;
#X text 374 160 C1 - clear delay buffer & reset loop;
#X text 10 111 OPERATING;
#X text 29 259 CONTROL & STATE MGMT;
#X text 342 258 AUDIO;
#X text 10 43 Setting feedback to 100% locks the recorded loop in place.
Anything less will result in gradual fadeout as the loop repeats;
#X text 10 9 TLA (time lag accumulator) - delay/feedback system;
#X text 11 172 knob 3 - sets recording/passthru input volume;
#X text 11 189 knob 4 - sets loop playback output volume;
